<svg width="442" height="113" viewBox="0 0 442 113" fill="none" xmlns="http://www.w3.org/2000/svg">
<g filter="url(#filter0_d_120_11)">
<path d="M12.096 28.816V79H5.544V28.816H12.096ZM62.7188 79H56.1668L29.8148 39.04V79H23.2628V28.744H29.8148L56.1668 68.632V28.744H62.7188V79ZM71.4398 53.872C71.4398 48.976 72.5438 44.584 74.7518 40.696C76.9598 36.76 79.9598 33.688 83.7518 31.48C87.5918 29.272 91.8398 28.168 96.4958 28.168C101.968 28.168 106.744 29.488 110.824 32.128C114.904 34.768 117.88 38.512 119.752 43.36H111.904C110.512 40.336 108.496 38.008 105.856 36.376C103.264 34.744 100.144 33.928 96.4958 33.928C92.9918 33.928 89.8478 34.744 87.0638 36.376C84.2798 38.008 82.0958 40.336 80.5118 43.36C78.9278 46.336 78.1358 49.84 78.1358 53.872C78.1358 57.856 78.9278 61.36 80.5118 64.384C82.0958 67.36 84.2798 69.664 87.0638 71.296C89.8478 72.928 92.9918 73.744 96.4958 73.744C100.144 73.744 103.264 72.952 105.856 71.368C108.496 69.736 110.512 67.408 111.904 64.384H119.752C117.88 69.184 114.904 72.904 110.824 75.544C106.744 78.136 101.968 79.432 96.4958 79.432C91.8398 79.432 87.5918 78.352 83.7518 76.192C79.9598 73.984 76.9598 70.936 74.7518 67.048C72.5438 63.16 71.4398 58.768 71.4398 53.872ZM155.929 79L143.977 58.48H136.057V79H129.505V28.816H145.705C149.497 28.816 152.689 29.464 155.281 30.76C157.921 32.056 159.889 33.808 161.185 36.016C162.481 38.224 163.129 40.744 163.129 43.576C163.129 47.032 162.121 50.08 160.105 52.72C158.137 55.36 155.161 57.112 151.177 57.976L163.777 79H155.929ZM136.057 53.224H145.705C149.257 53.224 151.921 52.36 153.697 50.632C155.473 48.856 156.361 46.504 156.361 43.576C156.361 40.6 155.473 38.296 153.697 36.664C151.969 35.032 149.305 34.216 145.705 34.216H136.057V53.224ZM179.862 34.144V50.92H198.15V56.32H179.862V73.6H200.31V79H173.31V28.744H200.31V34.144H179.862ZM239.888 67.84H218L213.968 79H207.056L225.2 29.104H232.76L250.832 79H243.92L239.888 67.84ZM238.016 62.512L228.944 37.168L219.872 62.512H238.016ZM274.651 79.504C271.339 79.504 268.363 78.928 265.723 77.776C263.131 76.576 261.091 74.944 259.603 72.88C258.115 70.768 257.347 68.344 257.299 65.608H264.283C264.523 67.96 265.483 69.952 267.163 71.584C268.891 73.168 271.387 73.96 274.651 73.96C277.771 73.96 280.219 73.192 281.995 71.656C283.819 70.072 284.731 68.056 284.731 65.608C284.731 63.688 284.203 62.128 283.147 60.928C282.091 59.728 280.771 58.816 279.187 58.192C277.603 57.568 275.467 56.896 272.779 56.176C269.467 55.312 266.803 54.448 264.787 53.584C262.819 52.72 261.115 51.376 259.675 49.552C258.283 47.68 257.587 45.184 257.587 42.064C257.587 39.328 258.283 36.904 259.675 34.792C261.067 32.68 263.011 31.048 265.507 29.896C268.051 28.744 270.955 28.168 274.219 28.168C278.923 28.168 282.763 29.344 285.739 31.696C288.763 34.048 290.467 37.168 290.851 41.056H283.651C283.411 39.136 282.403 37.456 280.627 36.016C278.851 34.528 276.499 33.784 273.571 33.784C270.835 33.784 268.603 34.504 266.875 35.944C265.147 37.336 264.283 39.304 264.283 41.848C264.283 43.672 264.787 45.16 265.795 46.312C266.851 47.464 268.123 48.352 269.611 48.976C271.147 49.552 273.283 50.224 276.019 50.992C279.331 51.904 281.995 52.816 284.011 53.728C286.027 54.592 287.755 55.96 289.195 57.832C290.635 59.656 291.355 62.152 291.355 65.32C291.355 67.768 290.707 70.072 289.411 72.232C288.115 74.392 286.195 76.144 283.651 77.488C281.107 78.832 278.107 79.504 274.651 79.504ZM378.844 79H372.292L345.94 39.04V79H339.388V28.744H345.94L372.292 68.632V28.744H378.844V79ZM428.029 43.36C426.637 40.432 424.621 38.176 421.981 36.592C419.341 34.96 416.269 34.144 412.765 34.144C409.261 34.144 406.093 34.96 403.261 36.592C400.477 38.176 398.269 40.48 396.637 43.504C395.053 46.48 394.261 49.936 394.261 53.872C394.261 57.808 395.053 61.264 396.637 64.24C398.269 67.216 400.477 69.52 403.261 71.152C406.093 72.736 409.261 73.528 412.765 73.528C417.661 73.528 421.693 72.064 424.861 69.136C428.029 66.208 429.877 62.248 430.405 57.256H410.389V51.928H437.389V56.968C437.005 61.096 435.709 64.888 433.501 68.344C431.293 71.752 428.389 74.464 424.789 76.48C421.189 78.448 417.181 79.432 412.765 79.432C408.109 79.432 403.861 78.352 400.021 76.192C396.181 73.984 393.133 70.936 390.877 67.048C388.669 63.16 387.565 58.768 387.565 53.872C387.565 48.976 388.669 44.584 390.877 40.696C393.133 36.76 396.181 33.712 400.021 31.552C403.861 29.344 408.109 28.24 412.765 28.24C418.093 28.24 422.797 29.56 426.877 32.2C431.005 34.84 434.005 38.56 435.877 43.36H428.029Z" fill="white"/>
<path d="M319.415 56.7423C319.415 75.3029 309.463 90.1514 302.829 93.8635C296.195 97.5756 268 105 268 105V90.1514C268 90.1514 291.22 84.5832 296.195 80.8711C301.171 77.159 306.146 69.7347 306.146 56.7423H319.415Z" fill="#213047"/>
<path d="M306.146 25.1893H319.415V58.5984L306.146 66.0227V25.1893Z" fill="#213047"/>
<path d="M312.78 2.91663L332.889 27.9734H292.672L312.78 2.91663Z" fill="#213047"/>
</g>
<defs>
<filter id="filter0_d_120_11" x="1.54395" y="2.91663" width="439.845" height="110.083" filterUnits="userSpaceOnUse" color-interpolation-filters="sRGB">
<feFlood flood-opacity="0" result="BackgroundImageFix"/>
<feColorMatrix in="SourceAlpha" type="matrix" values="0 0 0 0 0 0 0 0 0 0 0 0 0 0 0 0 0 0 127 0" result="hardAlpha"/>
<feOffset dy="4"/>
<feGaussianBlur stdDeviation="2"/>
<feComposite in2="hardAlpha" operator="out"/>
<feColorMatrix type="matrix" values="0 0 0 0 0 0 0 0 0 0 0 0 0 0 0 0 0 0 0.25 0"/>
<feBlend mode="normal" in2="BackgroundImageFix" result="effect1_dropShadow_120_11"/>
<feBlend mode="normal" in="SourceGraphic" in2="effect1_dropShadow_120_11" result="shape"/>
</filter>
</defs>
</svg>
