<svg width="40" height="40" viewBox="0 0 40 40" fill="none" xmlns="http://www.w3.org/2000/svg">
<circle cx="20" cy="20" r="20" fill="white"/>
<path d="M25.5 20.5C25.5 25.5 22.5 29.5 20.5 30.5C18.5 31.5 10 33.5 10 33.5V29.5C10 29.5 17 28 18.5 27C20 26 21.5 24 21.5 20.5H25.5Z" fill="#213047"/>
<path d="M21.5 12H25.5V21L21.5 23V12Z" fill="#213047"/>
<path d="M23.5 6L29.5622 12.75H17.4378L23.5 6Z" fill="#213047"/>
<circle cx="20" cy="20" r="20" fill="white"/>
<path d="M25.5 20.5C25.5 25.5 22.5 29.5 20.5 30.5C18.5 31.5 10 33.5 10 33.5V29.5C10 29.5 17 28 18.5 27C20 26 21.5 24 21.5 20.5H25.5Z" fill="#213047"/>
<path d="M21.5 12H25.5V21L21.5 23V12Z" fill="#213047"/>
<path d="M23.5 6L29.5622 12.75H17.4378L23.5 6Z" fill="#213047"/>
</svg>
